<?xml version="1.0" encoding="UTF-8"?>
<svg id="Layer_1" data-name="Layer 1" xmlns="http://www.w3.org/2000/svg" viewBox="0 0 1080 1080">
  <defs>
    <style>
      .cls-1 {
        fill: #282524;
      }

      .cls-2 {
        fill: #1d1b1b;
      }

      .cls-3 {
        stroke-width: 7.42px;
      }

      .cls-3, .cls-4 {
        fill: none;
        stroke: #221e1f;
        stroke-linecap: round;
        stroke-linejoin: round;
      }

      .cls-5 {
        fill: #fff;
      }

      .cls-4 {
        stroke-width: 7.7px;
      }

      .cls-6 {
        fill: #f7981d;
      }

      .cls-7 {
        fill: #f26b21;
      }

      .cls-8 {
        fill: #57b847;
      }

      .cls-9 {
        fill: #1a9abf;
      }

      .cls-10 {
        fill: #221e1f;
      }

      .cls-11 {
        fill: #ffc10e;
      }

      .cls-12 {
        fill: #fddab4;
      }
    </style>
  </defs>
  <rect class="cls-5" width="1080" height="1080"/>
  <g>
    <polygon class="cls-3" points="631.27 564.66 448.26 564.66 448.26 408.45 540.26 420.34 631.27 408.45 631.27 564.66"/>
    <polygon class="cls-12" points="631.29 564.46 544.3 664.01 540.28 668.61 448.28 564.46 631.29 564.46"/>
    <polygon class="cls-5" points="546.71 660.19 544.3 664.01 540.28 668.61 448.28 564.46 461.61 564.46 463.12 564.62 546.71 660.19"/>
    <polygon class="cls-3" points="448.26 564.47 540.26 668.62 631.27 564.47 448.26 564.47"/>
    <polygon class="cls-1" points="689.65 330.69 540.28 363.87 384.97 331.18 541.76 296.02 689.65 330.69"/>
    <polygon class="cls-5" points="406.73 335.51 557.1 300.35 546.21 297.69 389.42 332.85 406.73 335.51"/>
    <polygon class="cls-3" points="384.95 331.2 540.26 363.88 689.63 330.7 541.74 296.03 384.95 331.2"/>
    <polygon class="cls-1" points="631.29 344.06 631.29 408.44 540.28 420.32 448.28 408.44 448.28 344.55 540.28 363.87 631.29 344.06"/>
    <polygon class="cls-6" points="507.14 415.89 507.63 564.46 448.28 564.46 448.28 406.98 507.14 415.89"/>
    <polygon class="cls-5" points="447.78 406.14 462.62 407.9 462.62 565.76 447.78 565.59 447.78 406.14"/>
    <polygon class="cls-3" points="507.61 564.47 448.26 564.47 448.26 406.99 507.12 415.91 507.61 564.47"/>
    <polygon class="cls-11" points="570.94 417.38 570.94 564.46 507.14 564.46 507.14 415.89 540.28 420.32 570.94 417.38"/>
    <polygon class="cls-5" points="507.14 415.89 521.98 417.53 521.98 564.62 507.14 564.46 507.14 415.89"/>
    <polygon class="cls-4" points="570.92 564.47 507.12 564.47 507.12 415.91 540.26 420.34 570.92 417.39 570.92 564.47"/>
    <polygon class="cls-6" points="630.79 407.48 630.79 564.96 571.44 564.96 570.94 417.38 630.79 407.48"/>
    <polygon class="cls-7" points="613.98 408.62 628.82 410.32 628.82 563.28 613.98 563.12 613.98 408.62"/>
    <polygon class="cls-3" points="630.77 564.97 571.42 564.97 570.92 417.39 630.77 407.49 630.77 564.97"/>
    <polygon class="cls-10" points="559.07 646.17 540.28 668.61 521.48 646.17 559.07 646.17"/>
    <polygon class="cls-3" points="521.46 646.18 559.05 646.18 540.26 668.62 521.46 646.18"/>
    <path class="cls-10" d="M530.99,317.32c-1.35-1.35-3.97-2.13-5.84-1.75l-109.95,22.86c-1.86.39-3.39,2.27-3.39,4.17v137.18c0,1.91,1.56,3.47,3.46,3.47h.99c1.9,0,3.46-1.56,3.46-3.47v-131.73c0-1.91,1.52-3.78,3.39-4.17l107.97-22.37c1.87-.39,2.29-1.81.94-3.15l-1.04-1.04Z"/>
    <polygon class="cls-2" points="448.77 360.58 539.78 378.91 631.29 363.06 631.29 344.06 543.25 362.07 448.28 344.55 448.77 360.58"/>
    <polygon class="cls-3" points="448.26 344.57 448.26 408.45 540.26 420.34 631.27 408.45 631.27 344.07 540.26 363.88 448.26 344.57"/>
    <path class="cls-10" d="M423.94,485.89c0,4.38-3.54,7.92-7.91,7.92s-7.92-3.55-7.92-7.92,3.54-7.92,7.92-7.92,7.91,3.55,7.91,7.92"/>
    <path class="cls-9" d="M567.52,723.42c-2.74,0-5.09.58-7.02,1.73s-3.52,2.65-4.74,4.49c-1.24,1.84-2.14,3.96-2.74,6.38-.58,2.4-.9,4.84-.94,7.3,1.54.23,3.4.44,5.59.65,2.21.21,4.4.3,6.54.3,3.52,0,6.42-.32,8.7-.97,2.3-.64,3.96-1.52,4.99-2.6.64-.72,1.13-1.64,1.52-2.77.39-1.13.58-2.26.58-3.36,0-1.54-.23-2.99-.71-4.35-.46-1.38-1.22-2.56-2.21-3.55-1.01-.99-2.32-1.78-3.89-2.37-1.56-.58-3.45-.88-5.66-.88M594.63,780.34c-3.91.99-7.96,1.82-12.15,2.49-4.17.69-8.24,1.01-12.2,1.01-12.22,0-21.38-3.02-27.43-9.08-6.08-6.04-9.11-15.46-9.11-28.25,0-5.85.76-11.06,2.3-15.67,1.52-4.59,3.7-8.48,6.56-11.66,2.88-3.2,6.35-5.65,10.5-7.33,4.14-1.7,8.82-2.53,14.02-2.53,4.51,0,8.61.55,12.36,1.66,3.73,1.08,6.91,2.72,9.58,4.86,2.65,2.12,4.69,4.79,6.17,7.95,1.45,3.18,2.19,6.84,2.19,10.97,0,3.83-.58,7.05-1.73,9.63-1.15,2.58-2.69,4.65-4.63,6.24-1.33,1.08-2.92,1.98-4.79,2.72-1.84.76-3.84,1.36-6.03,1.8-2.16.46-4.51.78-7,.99-2.51.18-5.09.3-7.73.3-1.34,0-2.76-.05-4.28-.14-1.5-.09-2.9-.21-4.21-.35-1.47-.14-2.95-.28-4.37-.46.39,2.56,1.1,4.72,2.12,6.5,1.01,1.8,2.35,3.23,4.05,4.31,1.68,1.06,3.7,1.84,6.1,2.33,2.37.46,5.09.69,8.15.69,2.03,0,4.19-.14,6.51-.39,2.32-.28,4.49-.6,6.51-.94,2.32-.41,4.63-.88,6.86-1.43l1.7,13.78ZM492.42,782.16c-1.17,0-2.16-.14-2.95-.41-.78-.25-1.45-.65-1.98-1.13-.55-.51-.99-1.08-1.36-1.77-.35-.67-.67-1.41-.94-2.21l-22.32-65.7h14.5c1.17,0,2.14.14,2.88.37.74.25,1.33.6,1.82,1.06.46.44.85.99,1.15,1.64.28.67.55,1.41.76,2.21l14.25,48.39,14.08-48.39c.23-.85.46-1.61.74-2.26.27-.67.64-1.22,1.11-1.66.48-.46,1.08-.78,1.84-1.01.74-.23,1.7-.35,2.92-.35h14.36l-24.28,71.23h-16.57ZM457.2,697.98h-18.62v-16.34h18.62v16.34ZM444.52,782.16c-1.22,0-2.19-.09-2.92-.28-.76-.18-1.31-.51-1.73-.97-.41-.48-.67-1.08-.81-1.82-.14-.76-.21-1.71-.21-2.88v-65.28h12.41c1.22,0,2.19.12,2.9.3.71.21,1.26.55,1.61,1.01.37.48.6,1.11.71,1.87.11.76.18,1.73.18,2.9v65.14h-12.15ZM429.84,781.74c-2.3.65-4.76,1.15-7.39,1.52-2.62.39-5.52.58-8.65.58-3.91,0-7.27-.44-10.06-1.34-2.79-.9-5.06-2.3-6.81-4.22-1.75-1.91-3.04-4.38-3.84-7.37-.81-3-1.22-6.57-1.22-10.76v-35.24h-9.69v-13.99h9.69v-13.83l17.81-4.4v18.23h17.54v13.99h-17.54v34.68c0,2.97.6,5.28,1.82,6.87,1.22,1.59,3.5,2.4,6.88,2.4,1.17,0,2.35-.07,3.57-.16,1.22-.12,2.32-.25,3.31-.39,1.15-.16,2.28-.35,3.36-.53l1.22,13.96ZM377.36,780.34c-2.37.53-4.58,1.04-6.56,1.48-2,.46-3.91.83-5.71,1.13-1.8.28-3.55.51-5.25.67-1.73.16-3.48.23-5.27.23-5.09,0-9.64-.71-13.72-2.17-4.07-1.43-7.53-3.66-10.38-6.68-2.85-3-5.06-6.84-6.58-11.5-1.52-4.66-2.3-10.19-2.3-16.57s.87-12.21,2.6-16.91c1.73-4.7,4.12-8.57,7.18-11.61,3.06-3.04,6.68-5.28,10.82-6.68,4.17-1.43,8.7-2.12,13.6-2.12,2.14,0,4.33.16,6.54.51,2.21.32,4.31.74,6.31,1.2,2,.48,3.8.99,5.39,1.52,1.61.55,2.85,1.01,3.75,1.43l-3.98,10.67c-.51,1.25-1.01,2.28-1.59,3.09-.55.83-1.43,1.22-2.6,1.22-.76,0-1.47-.14-2.14-.44-.69-.3-1.33-.62-1.96-.97-1.13-.64-2.39-1.22-3.82-1.73-1.4-.53-3.22-.78-5.43-.78-2.46,0-4.69.39-6.7,1.15-2,.76-3.7,2.01-5.13,3.71-1.4,1.7-2.51,3.94-3.29,6.66-.81,2.72-1.2,6.04-1.2,9.95,0,3.36.32,6.41.99,9.08.64,2.67,1.68,4.95,3.08,6.82,1.43,1.87,3.25,3.3,5.43,4.29,2.21.99,4.88,1.48,8.03,1.48,2.79,0,5.62-.18,8.49-.58,2.88-.37,6.12-.92,9.71-1.64l1.68,14.1ZM283.57,723.42c-2.74,0-5.09.58-7.02,1.73-1.93,1.15-3.52,2.65-4.74,4.49-1.24,1.84-2.14,3.96-2.74,6.38-.58,2.4-.9,4.84-.94,7.3,1.54.23,3.4.44,5.59.65,2.21.21,4.4.3,6.54.3,3.52,0,6.42-.32,8.7-.97,2.3-.64,3.96-1.52,4.99-2.6.64-.72,1.13-1.64,1.52-2.77.39-1.13.58-2.26.58-3.36,0-1.54-.23-2.99-.72-4.35-.46-1.38-1.22-2.56-2.21-3.55-1.01-.99-2.32-1.78-3.89-2.37-1.57-.58-3.45-.88-5.66-.88ZM310.68,780.34c-3.91.99-7.96,1.82-12.15,2.49-4.17.69-8.24,1.01-12.2,1.01-12.22,0-21.38-3.02-27.43-9.08-6.08-6.04-9.11-15.46-9.11-28.25,0-5.85.76-11.06,2.3-15.67,1.52-4.59,3.7-8.48,6.56-11.66,2.88-3.2,6.35-5.65,10.5-7.33,4.14-1.7,8.82-2.53,14.02-2.53,4.51,0,8.61.55,12.36,1.66,3.73,1.08,6.91,2.72,9.58,4.86,2.65,2.12,4.69,4.79,6.17,7.95,1.45,3.18,2.19,6.84,2.19,10.97,0,3.83-.58,7.05-1.73,9.63-1.15,2.58-2.69,4.65-4.63,6.24-1.34,1.08-2.92,1.98-4.79,2.72-1.84.76-3.84,1.36-6.03,1.8-2.16.46-4.51.78-7,.99-2.51.18-5.09.3-7.73.3-1.33,0-2.76-.05-4.28-.14-1.5-.09-2.9-.21-4.21-.35-1.47-.14-2.95-.28-4.37-.46.39,2.56,1.11,4.72,2.12,6.5,1.01,1.8,2.35,3.23,4.05,4.31,1.68,1.06,3.7,1.84,6.1,2.33,2.37.46,5.09.69,8.15.69,2.03,0,4.19-.14,6.51-.39,2.32-.28,4.49-.6,6.51-.94,2.32-.41,4.63-.88,6.86-1.43l1.7,13.78ZM247.64,782.02c-.94.23-2.62.51-4.99.85-2.39.32-5.32.51-8.77.51s-6.05-.48-8.33-1.43c-2.26-.94-4.1-2.35-5.5-4.24-1.38-1.89-2.39-4.24-2.99-7.07-.6-2.81-.9-6.11-.9-9.89v-79.11h12.34c1.2,0,2.19.09,2.92.25.74.18,1.31.51,1.68.94.39.46.64,1.06.76,1.84.09.76.16,1.73.16,2.88v72.31c0,1.41.09,2.63.28,3.69.16,1.06.51,1.94.97,2.67.48.71,1.13,1.27,2,1.64.85.39,1.93.58,3.22.58,1.61,0,3.68-.14,6.21-.39l.94,13.96ZM174.06,723.42c-2.74,0-5.09.58-7.02,1.73s-3.52,2.65-4.74,4.49c-1.24,1.84-2.14,3.96-2.74,6.38-.57,2.4-.9,4.84-.94,7.3,1.54.23,3.41.44,5.59.65,2.21.21,4.4.3,6.54.3,3.52,0,6.42-.32,8.7-.97,2.3-.64,3.96-1.52,4.99-2.6.65-.72,1.13-1.64,1.52-2.77.39-1.13.58-2.26.58-3.36,0-1.54-.23-2.99-.71-4.35-.46-1.38-1.22-2.56-2.21-3.55-1.01-.99-2.32-1.78-3.89-2.37-1.57-.58-3.45-.88-5.66-.88ZM201.17,780.34c-3.91.99-7.96,1.82-12.15,2.49-4.17.69-8.24,1.01-12.2,1.01-12.22,0-21.38-3.02-27.44-9.08-6.08-6.04-9.11-15.46-9.11-28.25,0-5.85.76-11.06,2.3-15.67,1.52-4.59,3.71-8.48,6.56-11.66,2.88-3.2,6.35-5.65,10.49-7.33,4.14-1.7,8.82-2.53,14.02-2.53,4.51,0,8.61.55,12.36,1.66,3.73,1.08,6.91,2.72,9.57,4.86,2.65,2.12,4.7,4.79,6.17,7.95,1.45,3.18,2.19,6.84,2.19,10.97,0,3.83-.58,7.05-1.73,9.63-1.15,2.58-2.69,4.65-4.63,6.24-1.33,1.08-2.92,1.98-4.79,2.72-1.84.76-3.84,1.36-6.03,1.8-2.16.46-4.51.78-7,.99-2.51.18-5.09.3-7.73.3-1.34,0-2.76-.05-4.28-.14-1.5-.09-2.9-.21-4.21-.35-1.47-.14-2.95-.28-4.37-.46.39,2.56,1.1,4.72,2.12,6.5,1.01,1.8,2.35,3.23,4.05,4.31,1.68,1.06,3.71,1.84,6.1,2.33,2.37.46,5.09.69,8.15.69,2.03,0,4.19-.14,6.51-.39,2.32-.28,4.49-.6,6.51-.94,2.32-.41,4.63-.88,6.86-1.43l1.7,13.78ZM67.04,764.21c2.69.62,5.5,1.18,8.38,1.68,2.42.41,5.13.78,8.12,1.11,2.97.35,5.92.51,8.79.51,4.21,0,7.59-.37,10.15-1.11,2.53-.74,4.49-1.75,5.82-3.04,1.36-1.29,2.23-2.76,2.67-4.42.41-1.66.64-3.41.64-5.25,0-2.4-.46-4.38-1.38-5.95-.92-1.59-2.21-2.88-3.82-3.92-1.61-1.04-3.52-1.87-5.73-2.49-2.21-.64-4.58-1.17-7.13-1.64-5.41-.94-9.97-2.21-13.69-3.85-3.73-1.61-6.79-3.62-9.14-5.97-2.37-2.37-4.07-5.09-5.13-8.2-1.06-3.11-1.59-6.59-1.59-10.46,0-2.26.21-4.59.62-7.03.39-2.42,1.1-4.79,2.12-7.07,1.01-2.3,2.37-4.47,4.07-6.52,1.73-2.05,3.87-3.85,6.44-5.41,2.58-1.54,5.66-2.77,9.21-3.66,3.55-.9,7.71-1.36,12.47-1.36,4.14,0,7.92.28,11.37.85,3.43.55,6.4,1.2,8.88,1.89,2.51.69,4.44,1.34,5.85,1.96,1.38.6,2.14.92,2.21.97l-4.86,14.52c-.53,1.54-1.45,2.3-2.76,2.3-.53,0-1.13-.16-1.77-.48-.67-.3-1.43-.78-2.32-1.41-1.73-1.27-3.96-2.35-6.74-3.25-2.78-.9-6.03-1.34-9.71-1.34-5.46,0-9.53,1.08-12.24,3.27-2.72,2.17-4.07,5.65-4.07,10.42,0,2.44.46,4.47,1.38,6.08.92,1.61,2.14,2.95,3.64,4.01,1.52,1.06,3.22,1.89,5.13,2.51,1.91.6,3.87,1.1,5.89,1.52,6.08,1.25,11.14,2.63,15.24,4.1,4.1,1.5,7.39,3.3,9.87,5.44,2.51,2.14,4.28,4.7,5.34,7.7,1.06,3,1.59,6.61,1.59,10.83,0,4.77-.67,9.13-2,13.04-1.31,3.92-3.45,7.28-6.38,10.09-2.92,2.81-6.72,4.98-11.39,6.5-4.67,1.54-10.33,2.3-16.98,2.3-3.91,0-7.64-.23-11.16-.67-3.52-.46-6.65-.94-9.41-1.5-3.17-.62-6.17-1.34-8.95-2.14l2.49-15.46Z"/>
    <path class="cls-8" d="M963.8,766.56c.81.23,2.09.51,3.89.81,1.77.32,3.75.62,5.96.92,2.21.3,4.47.53,6.81.74,2.32.21,4.42.3,6.26.3,4.05,0,7.04-.55,8.98-1.68,1.93-1.13,2.9-3.11,2.9-5.95,0-1.13-.23-2.1-.67-2.93-.46-.83-1.2-1.59-2.23-2.23-1.04-.65-2.39-1.24-4.05-1.75-1.66-.51-3.71-.97-6.15-1.38-3.5-.58-6.7-1.38-9.6-2.37-2.9-.99-5.39-2.28-7.48-3.87-2.09-1.59-3.73-3.55-4.9-5.88-1.15-2.33-1.75-5.14-1.75-8.48,0-3.04.44-5.99,1.31-8.83.87-2.83,2.46-5.35,4.76-7.51,2.3-2.14,5.41-3.89,9.35-5.18,3.93-1.31,8.95-1.96,15.05-1.96,4.46,0,8.56.46,12.31,1.41,3.75.94,7.02,1.89,9.8,2.83l-4.3,11.48c-.51,1.18-1.01,2.05-1.52,2.6-.53.58-1.15.85-1.93.85s-1.61-.28-2.56-.81c-.94-.55-1.79-.99-2.55-1.36-1.31-.62-2.83-1.13-4.58-1.52-1.77-.37-3.59-.58-5.48-.58-4.49,0-7.78.58-9.87,1.73-2.1,1.15-3.13,2.95-3.13,5.44,0,1.31.32,2.4.97,3.27.67.88,1.59,1.61,2.81,2.19,1.22.6,2.67,1.08,4.35,1.5,1.68.39,3.54.76,5.57,1.06,3.93.69,7.41,1.59,10.4,2.72,2.99,1.13,5.5,2.54,7.48,4.24,2,1.7,3.5,3.76,4.49,6.11.99,2.37,1.5,5.14,1.5,8.27,0,3.96-.6,7.4-1.75,10.3-1.17,2.9-2.97,5.3-5.41,7.19-2.42,1.89-5.5,3.29-9.23,4.22-3.73.92-8.17,1.38-13.28,1.38-.99,0-2.42-.07-4.26-.23-1.84-.16-3.89-.39-6.14-.71-2.23-.3-4.58-.69-7.04-1.15-2.44-.44-4.76-.97-6.97-1.54l1.89-13.64ZM920.9,725.73c-1.57,0-2.99.14-4.3.44-1.31.3-2.46.64-3.48,1.04-1.01.41-1.84.83-2.49,1.24-.67.44-1.15.78-1.45,1.06-.46.35-.71.67-.78.9-.07.25-.09.58-.09.99v50.77h-12.15c-1.2,0-2.19-.09-2.92-.28-.74-.18-1.31-.51-1.73-.97-.39-.48-.67-1.08-.81-1.82-.14-.76-.21-1.71-.21-2.88v-37.86c0-2.4-.23-4.4-.67-6.02-.46-1.61-1.15-2.93-2.12-3.89-.97-.97-2.23-1.66-3.77-2.07-1.56-.44-3.41-.64-5.57-.64-1.59,0-3.02.14-4.33.44-1.29.3-2.46.64-3.47,1.04-.99.41-1.84.83-2.49,1.24-.64.44-1.13.78-1.45,1.06-.42.35-.65.67-.72.9-.07.25-.09.58-.09.99v50.77h-12.34c-1.22,0-2.19-.09-2.9-.28-.72-.18-1.27-.51-1.66-.97-.39-.48-.64-1.08-.78-1.82-.14-.76-.18-1.71-.18-2.88v-65.28h9.16c1.66,0,2.85.23,3.57.67.74.46,1.33,1.06,1.82,1.84.41.72.78,1.27,1.08,1.64.32.39.69.58,1.08.58.51,0,1.01-.16,1.52-.51.51-.32,1.1-.71,1.8-1.18.94-.53,1.96-1.08,3.04-1.66,1.06-.55,2.23-1.06,3.45-1.47,1.24-.44,2.6-.78,4.05-1.08,1.47-.3,3.06-.44,4.83-.44,2.37,0,4.46.16,6.31.51,1.82.32,3.43.78,4.86,1.31,1.4.53,2.65,1.15,3.71,1.82,1.06.67,1.98,1.36,2.78,2.03.9.76,1.59,1.31,2.07,1.66.46.32.87.51,1.24.51.25,0,.51-.04.71-.11.18-.07.48-.21.83-.44,1.61-1.08,3.18-2.07,4.7-2.97,1.49-.9,3.06-1.66,4.65-2.33,1.59-.65,3.27-1.15,5.02-1.47,1.75-.35,3.68-.51,5.8-.51,3.78,0,7.18.44,10.22,1.31,3.04.88,5.62,2.35,7.76,4.38,2.14,2.05,3.77,4.75,4.95,8.09,1.17,3.32,1.75,7.44,1.75,12.35v46.71h-11.99c-1.26,0-2.28-.09-3.04-.28-.76-.18-1.36-.51-1.75-.97-.41-.48-.67-1.08-.81-1.82-.14-.76-.21-1.71-.21-2.88v-37.86c0-2.4-.21-4.4-.64-6.02-.42-1.61-1.11-2.93-2.05-3.89-.94-.97-2.19-1.66-3.71-2.07-1.54-.44-3.41-.64-5.62-.64ZM815.78,731.25c0-.41-.02-.71-.09-.92-.07-.18-.32-.48-.71-.83-.37-.32-.87-.69-1.56-1.13-.67-.41-1.47-.83-2.44-1.24-.97-.39-2.07-.74-3.31-1.01-1.24-.25-2.58-.39-4-.39-2.21,0-4.3.35-6.28,1.08-1.98.71-3.7,1.89-5.18,3.5-1.5,1.61-2.67,3.78-3.54,6.45-.88,2.67-1.31,5.97-1.31,9.89,0,6.8,1.29,11.98,3.87,15.53,2.58,3.55,6.6,5.32,12.04,5.32,1.75,0,3.29-.14,4.63-.44,1.31-.28,2.46-.64,3.43-1.08.97-.41,1.75-.85,2.37-1.27.6-.44,1.04-.78,1.31-1.06.35-.35.58-.64.67-.88.09-.23.14-.53.14-.94v-30.58ZM824.49,782.16c-1.66,0-2.85-.23-3.57-.67-.74-.46-1.33-1.06-1.82-1.82-.41-.69-.78-1.22-1.08-1.64-.32-.39-.71-.6-1.15-.6-.51,0-.99.18-1.5.53-.48.37-1.08.76-1.82,1.15-.94.55-1.96,1.11-3.06,1.66-1.11.55-2.32,1.06-3.64,1.52-1.33.44-2.78.83-4.35,1.11-1.59.3-3.31.44-5.2.44-3.96,0-7.66-.71-11.16-2.17-3.48-1.43-6.51-3.66-9.14-6.71-2.6-3.04-4.65-6.89-6.17-11.54-1.5-4.66-2.25-10.21-2.25-16.64s.8-12.07,2.39-16.78c1.61-4.7,3.73-8.6,6.37-11.66,2.65-3.04,5.71-5.32,9.18-6.8,3.45-1.5,7.04-2.23,10.77-2.23,1.89,0,3.61.14,5.2.44,1.57.3,3.02.64,4.35,1.08,1.31.41,2.53.92,3.64,1.47,1.1.58,2.12,1.13,3.06,1.66.74.46,1.33.85,1.82,1.18.51.35.99.51,1.5.51.44,0,.83-.18,1.15-.58.3-.37.67-.92,1.08-1.64.48-.78,1.08-1.38,1.82-1.84.72-.44,1.91-.67,3.57-.67h9.09v71.23h-9.09ZM752.42,782.16c-1.54,0-2.9-.28-4.1-.85-1.17-.55-2.28-1.68-3.27-3.41l-11.85-20.65-11.88,20.65c-.99,1.68-2.05,2.81-3.18,3.39-1.13.58-2.44.88-3.98.88h-15.77l21.84-35.65-21.98-35.58h15.72c1.43,0,2.72.3,3.87.92,1.15.6,2.21,1.73,3.2,3.41l12.15,20.72c1.93-3.46,3.84-6.91,5.75-10.37,1.91-3.43,3.82-6.89,5.71-10.35.99-1.73,2.07-2.86,3.27-3.46,1.17-.58,2.51-.88,3.94-.88h15.72l-21.66,35.58,22.19,35.65h-15.7ZM631.17,782.16c-1.22,0-2.19-.09-2.9-.28-.71-.18-1.29-.46-1.68-.88-.41-.39-.67-.97-.78-1.68-.11-.71-.16-1.61-.16-2.7v-94.99h66.01v16.06h-47.07v25.26h43.89v15.79h-43.89v26.94h48.89v16.48h-62.3Z"/>
  </g>
</svg>