<svg width="16" height="16" viewBox="0 0 16 16" fill="none" xmlns="http://www.w3.org/2000/svg">
<path d="M14.6875 4.18749L14.725 4.16249C14.65 4.02499 14.5375 3.89999 14.425 3.83749L8.3875 0.362494C8.2875 0.299994 8.15 0.274994 8 0.274994C7.85 0.274994 7.7125 0.312494 7.6125 0.362494L1.6125 3.84999C1.4 3.97499 1.25 4.28749 1.25 4.52499V11.4875C1.25 11.625 1.275 11.775 1.3625 11.9125L1.3375 11.925C1.4 12.025 1.4875 12.1125 1.575 12.1625L7.6 15.65C7.7 15.7125 7.8375 15.7375 7.9875 15.7375C8.1375 15.7375 8.275 15.7 8.375 15.65L14.375 12.1625C14.5875 12.0375 14.7375 11.725 14.7375 11.4875V4.51249C14.75 4.41249 14.7375 4.29999 14.6875 4.18749ZM8 12.9375C5.275 12.9375 3.0625 10.725 3.0625 7.99999C3.0625 5.27499 5.275 3.06249 8 3.06249C9.8375 3.06249 11.4375 4.07499 12.2875 5.56249L10.6625 6.49999C10.1375 5.56249 9.1375 4.93749 8 4.93749C6.3125 4.93749 4.9375 6.31249 4.9375 7.99999C4.9375 9.68749 6.3125 11.0625 8 11.0625C9.1375 11.0625 10.1375 10.4375 10.6625 9.51249L12.275 10.4625C11.425 11.9375 9.825 12.9375 8 12.9375ZM14.375 7.74999H13.975L13.8625 8.24999H14.375V8.87499H13.75L13.6 9.62499H12.9875L13.1375 8.87499H12.6625L12.5125 9.62499H11.9125L12.0625 8.87499H11.75V8.24999H12.1875L12.3 7.74999H11.75V7.12499H12.4125L12.5625 6.37499H13.175L13.025 7.12499H13.5L13.65 6.37499H14.25L14.1 7.12499H14.375V7.74999ZM12.7875 8.24999H13.2625L13.375 7.74999H12.9L12.7875 8.24999Z" fill="black"/>
</svg>
