<svg width="16" height="16" viewBox="0 0 16 16" fill="none" xmlns="http://www.w3.org/2000/svg">
<g clip-path="url(#clip0_2_18)">
<path d="M12.25 0H3.75C1.67893 0 0 1.67893 0 3.75V12.25C0 14.3211 1.67893 16 3.75 16H12.25C14.3211 16 16 14.3211 16 12.25V3.75C16 1.67893 14.3211 0 12.25 0Z" fill="black"/>
<path d="M14.25 11.4336C14.0681 11.5025 13.8672 11.5024 13.6853 11.4332C13.5034 11.3641 13.3532 11.2307 13.2631 11.0582C12.6966 10.2103 12.0711 9.40062 11.4699 8.57356L11.2093 8.22606C10.4934 9.18518 9.7775 10.1061 9.12419 11.0617C9.03909 11.2265 8.897 11.3547 8.72439 11.4225C8.55177 11.4903 8.3604 11.493 8.18594 11.4301L10.8722 7.82643L8.37356 4.57018C8.55342 4.50525 8.75018 4.50436 8.93063 4.56766C9.11107 4.63097 9.26414 4.7546 9.364 4.91768C9.94431 5.76568 10.5873 6.57537 11.2266 7.43375C11.8696 6.58231 12.5055 5.76912 13.0997 4.92812C13.1853 4.76601 13.3275 4.64102 13.4992 4.57694C13.6709 4.51286 13.8602 4.51417 14.0311 4.58062L13.0615 5.86643C12.6271 6.43981 12.1997 7.01668 11.7479 7.57618C11.7115 7.60878 11.6824 7.64868 11.6625 7.69329C11.6425 7.73791 11.6322 7.78622 11.6322 7.83509C11.6322 7.88395 11.6425 7.93227 11.6625 7.97688C11.6824 8.0215 11.7115 8.0614 11.7479 8.094C12.5785 9.19562 13.4021 10.3007 14.25 11.4336ZM1.75 7.78125C1.823 7.43375 1.86813 7.05493 1.96894 6.7005C2.57013 4.56331 5.02006 3.67362 6.7055 4.99768C7.69244 5.77268 7.93919 6.87081 7.89056 8.10793H2.33037C2.24 10.3181 3.83506 11.6526 5.87494 10.9714C6.20585 10.8531 6.50207 10.6542 6.73687 10.3927C6.97166 10.1312 7.13764 9.81532 7.21981 9.47362C7.32756 9.12612 7.50131 9.06706 7.83144 9.16781C7.77706 9.59087 7.62748 9.9961 7.39394 10.353C7.16041 10.71 6.849 11.0093 6.48313 11.2286C5.87861 11.5592 5.18502 11.6902 4.50155 11.6028C3.81809 11.5154 3.17976 11.2142 2.67788 10.7421C2.18134 10.1838 1.88111 9.47833 1.823 8.73343C1.823 8.61531 1.77781 8.49712 1.7535 8.38593C1.7512 8.18438 1.75003 7.98281 1.75 7.78125ZM2.33731 7.63181H7.36581C7.3345 6.02981 6.32325 4.89343 4.97494 4.88306C3.47369 4.86218 2.39987 5.97418 2.33381 7.62487L2.33731 7.63181Z" fill="white"/>
</g>
<defs>
<clipPath id="clip0_2_18">
<rect width="16" height="16" fill="white"/>
</clipPath>
</defs>
</svg>
