<svg width="248" height="132" viewBox="0 0 248 132" fill="none" xmlns="http://www.w3.org/2000/svg">
<g clip-path="url(#clip0_3133_14)">
<path d="M20.0348 93.0748C23.5933 89.3852 27.0954 85.7705 30.5739 82.1324C40.0226 72.2635 49.4759 62.3947 58.8869 52.4931C59.6672 51.6679 60.2266 51.5742 61.2749 52.0055C72.223 56.5297 83.1947 61.0023 94.1851 65.4187C94.6975 65.6249 95.6988 65.3999 96.0984 65.0014C104.184 56.9985 112.222 48.9487 120.251 40.8802C121.487 39.6378 122.601 38.2829 124.087 36.6279C127.011 39.6659 129.568 42.3851 132.196 45.0434C138.547 51.471 144.977 57.8143 151.253 64.3122C152.574 65.6812 153.655 65.8922 155.324 65.2124C166.286 60.7398 177.276 56.3328 188.648 51.7476C201.537 65.3015 214.737 79.1835 227.758 92.8732C225.643 97.9647 221.271 97.374 217.012 97.1349V121.101C220.731 121.692 224.449 122.156 228.116 122.892C233.63 124.003 239.101 125.34 244.606 126.507C246.082 126.821 246.688 127.496 246.477 129.006C246.359 129.864 246.453 130.75 246.453 131.458C234.626 129.958 222.86 128.462 210.732 126.924C210.732 126.732 210.732 126.057 210.732 125.386C210.718 115.189 210.676 104.997 210.727 94.8001C210.737 93.1686 210.314 92.0059 209.129 90.8057C201.965 83.5389 194.904 76.1736 187.811 68.8364C187.322 68.3301 186.894 67.7722 186.349 67.1299C181.361 72.3151 176.553 77.3222 171.363 82.7184C173.807 84.9266 176.186 87.0738 178.748 89.3805C177.182 90.876 175.866 92.2075 174.456 93.4265C174.033 93.7921 173.337 94.0031 172.759 94.0125C169.412 94.0734 166.065 94.05 162.713 94.0641C162.14 94.0641 161.571 94.111 160.8 94.1438V129.822H154.369C154.369 128.79 154.369 127.81 154.369 126.83C154.374 114.936 154.346 103.042 154.431 91.148C154.445 89.3664 153.951 88.0771 152.705 86.8207C144.785 78.8178 136.939 70.7399 129.027 62.7229C127.302 60.9742 125.427 59.3755 123.471 57.5705C123.194 57.833 122.634 58.3159 122.122 58.8457C113.332 67.8847 104.574 76.9612 95.7317 85.9486C94.171 87.5333 93.5928 89.1695 93.6069 91.373C93.6916 103.675 93.6352 115.982 93.6211 128.289C93.6211 128.8 93.5693 129.311 93.5411 129.901H87.2562V94.0172C83.0348 94.0172 79.058 94.05 75.0811 93.9844C74.4841 93.975 73.7508 93.6562 73.323 93.2389C72.1102 92.0575 71.0196 90.7495 69.7927 89.3945C72.0256 87.0598 74.1926 84.7906 76.5336 82.3434C71.5978 77.266 66.6385 72.1698 61.8296 67.2237C54.0215 75.2922 46.3357 83.1826 38.7345 91.162C38.067 91.8606 37.6674 93.103 37.658 94.0969C37.5264 104.524 37.4982 114.955 37.4418 125.382C37.4418 126.01 37.4418 126.634 37.4418 126.859C25.4031 128.396 13.6182 129.906 1.72985 131.425C1.80976 131.566 1.71105 131.467 1.70164 131.364C1.30208 127.074 1.27387 126.938 5.42468 126.104C13.5759 124.463 21.7694 123 29.9299 121.411C30.4094 121.317 31.1615 120.75 31.1662 120.398C31.2368 112.737 31.2227 105.077 31.2227 97.224C29.3705 97.224 27.6783 97.1161 26.0048 97.2568C24.5146 97.3834 23.4193 96.9661 22.5074 95.7894C21.7976 94.8751 20.9467 94.0734 20.0254 93.0748H20.0348ZM123.828 51.2788C124.36 51.9445 124.651 52.3899 125.022 52.765C136.596 64.4107 148.24 75.9907 159.695 87.749C161.604 89.7087 163.442 89.432 166.084 89.1976C151.779 74.7671 137.78 60.6413 123.701 46.4358C109.674 60.7726 95.9103 74.8468 82.0947 88.9679C85.0233 89.9853 86.9694 89.1226 88.7463 87.102C90.9463 84.5937 93.4095 82.3199 95.7505 79.9336C105.02 70.4773 114.29 61.0164 123.833 51.2788H123.828ZM75.9131 71.7713C79.4011 72.7933 82.6823 73.7591 85.9634 74.7202C79.561 71.4572 72.2277 69.6662 68.1521 63.0464C72.8905 64.7435 77.7089 66.4735 82.5319 68.1988C82.5601 68.1144 82.593 68.03 82.6212 67.9456C75.4196 64.5935 68.2179 61.2461 60.786 57.7861C50.2844 68.8833 39.5478 80.2336 28.5573 91.8465C30.5128 92.0247 31.8056 92.8264 33.3427 91.1667C40.676 83.2529 48.2066 75.5313 55.6621 67.73C57.6693 65.6296 59.6484 63.5105 61.8672 61.157C68.1051 67.5096 74.2162 73.7263 80.4353 80.0602C81.1498 79.4085 81.681 78.9209 82.0101 78.6162C79.9746 76.3283 78.0473 74.1623 75.9131 71.7666V71.7713ZM186.612 60.7913C187.2 61.7102 187.449 62.2728 187.849 62.6948C196.813 72.137 205.834 81.5276 214.728 91.0354C216.138 92.5451 217.327 92.5451 219.302 91.5746C208.443 80.1117 197.748 68.8177 187.383 57.8752C179.251 61.5883 171.645 65.0623 164.044 68.5364C164.067 68.602 164.091 68.6676 164.119 68.7333C169.45 66.8486 174.78 64.9639 180.238 63.0323C178.503 64.8561 177.112 66.7361 175.316 68.0957C173.478 69.4881 171.278 70.4351 169.177 71.4619C167.203 72.4276 165.153 73.234 163.136 74.1154C163.174 74.2092 163.216 74.303 163.254 74.3967C166.22 73.5856 169.186 72.7793 172.237 71.9447C170.155 74.1436 168.171 76.2392 166.107 78.4146C166.841 78.9678 167.348 79.3475 167.837 79.7132C173.972 73.5388 180.036 67.4299 186.617 60.8007L186.612 60.7913Z" fill="#A93339"/>
<path d="M32.1535 75.7938C31.2039 76.8487 30.527 77.7488 29.6903 78.4568C29.2296 78.8459 28.4634 79.1366 27.8758 79.0803C25.2621 78.8318 22.6626 78.438 20.0583 78.1005C19.9925 78.2458 19.922 78.3958 19.8562 78.5412C22.1173 79.5069 24.3831 80.4727 26.7946 81.5088C25.6993 82.6903 24.6416 83.9092 23.4805 85.0204C23.2032 85.2876 22.4369 85.4095 22.1267 85.222C19.8374 83.8342 17.4494 82.5356 15.3998 80.8384C13.402 79.1788 13.3973 77.6457 14.6524 74.9828C11.7896 73.4825 8.79522 71.9635 8.02899 68.4895C7.74694 67.2096 8.38155 65.7328 8.64009 64.0637C7.56831 63.0745 6.02645 61.8087 4.68202 60.3647C2.99914 58.555 2.2141 56.4218 2.96623 53.8902C3.07905 53.5057 2.87221 52.8587 2.58077 52.5493C0.597029 50.4396 -0.00467351 47.8939 2.72852e-05 44.8043C13.6888 53.7308 28.9193 58.344 44.4743 62.5822C43.3367 63.8903 42.3354 65.1796 41.1743 66.3047C40.8265 66.6423 39.9756 66.7032 39.435 66.5673C29.3377 64.0825 19.3861 61.157 9.93281 56.75C9.74478 56.6609 9.53324 56.6234 9.27 56.7172C17.9853 62.5776 27.73 66.2016 37.738 69.5584C36.7697 70.6648 35.994 71.6869 35.0633 72.5402C34.7295 72.8496 33.9868 72.9012 33.4838 72.8074C25.5019 71.3259 17.7408 69.1271 10.4311 65.4984C16.7396 70.6602 24.1997 73.4825 32.1535 75.7891V75.7938Z" fill="#A93339"/>
<path d="M203.925 62.6666C219.504 58.6957 234.457 53.8808 248 44.8793C247.944 47.8048 247.412 50.1958 245.523 52.0805C244.883 52.7181 244.568 53.1916 244.94 54.1621C245.795 56.389 244.775 58.2596 243.478 60.0131C242.256 61.668 241.024 63.3183 239.562 65.2968C241.189 68.6348 239.628 71.3775 232.962 74.9171C234.875 77.1862 234.955 79.2256 232.581 81.1244C230.518 82.7747 228.017 83.8999 225.657 85.1516C225.3 85.3392 224.477 85.1188 224.148 84.8047C223.231 83.928 222.461 82.8966 221.506 81.7761C223.927 80.6649 226.169 79.6335 228.416 78.6068C228.374 78.4708 228.337 78.3349 228.294 78.1989C226.202 78.4427 224.082 78.5412 222.028 78.9584C219.297 79.5116 217.708 78.2505 216.523 76.0751C220.11 74.6452 223.758 73.3981 227.227 71.7525C230.696 70.1069 233.982 68.0722 237.348 66.2063C237.268 66.0328 237.193 65.864 237.113 65.6906C236.93 65.7093 236.718 65.6765 236.568 65.7515C229.789 69.2818 222.545 71.3775 215.066 72.7839C213.962 72.9902 213.162 72.9105 212.504 71.9072C212.034 71.1899 211.395 70.5851 210.812 69.9053C215.696 67.9738 220.491 66.2672 225.116 64.1856C229.719 62.1181 234.151 59.6802 238.659 57.4064C238.565 57.2235 238.476 57.036 238.382 56.8532C235.468 58.0252 232.614 59.3989 229.625 60.3366C222.691 62.5119 215.696 64.4763 208.73 66.5392C207.761 66.8251 207.075 66.6189 206.468 65.7703C205.735 64.7435 204.87 63.8059 203.935 62.6666H203.925Z" fill="#A93339"/>
<path d="M138.439 97.2802V129.808H132.901V102.794H115.358V129.789H109.745V97.2802H138.439Z" fill="#A93339"/>
<path d="M72.4016 35.6152C75.2503 35.1089 77.0648 33.618 77.6007 30.6222C78.1648 33.5524 80.0169 35.0151 82.9267 35.5168C78.7712 36.9561 78.79 37.4859 77.455 40.7583C76.9943 37.7906 75.2738 36.1919 72.4063 35.6152H72.4016Z" fill="#A93339"/>
<path d="M125.76 90.8338V81.9355H133.695V90.8338H125.76Z" fill="#A93339"/>
<path d="M114.258 81.8511H122.282V90.8713H114.258V81.8511Z" fill="#A93339"/>
<path d="M180.515 120.333H172.778V111.092H180.515V120.333Z" fill="#A93339"/>
<path d="M75.6076 111.078V120.3H68.0205V111.078H75.6076Z" fill="#A93339"/>
<path d="M46.585 111.022H54.2567V120.267H46.585V111.022Z" fill="#A93339"/>
<path d="M201.909 120.318H194.34V111.087H201.909V120.318Z" fill="#A93339"/>
<path d="M191.2 120.309H183.797V111.078H191.2V120.309Z" fill="#A93339"/>
<path d="M166.531 35.6012C169.262 34.9964 170.949 33.5008 171.443 30.6503C172.021 33.4633 173.713 35.0667 176.534 35.5684C173.77 36.2247 171.979 37.7859 171.372 40.9364C170.902 37.8375 169.248 36.2435 166.531 35.6012Z" fill="#A93339"/>
<path d="M64.7489 111.031V120.281H57.4062V111.031H64.7489Z" fill="#A93339"/>
<path d="M54.219 108.152H46.552V99.2634H54.219V108.152Z" fill="#A93339"/>
<path d="M67.9783 99.2212H75.5607V108.105H67.9783V99.2212Z" fill="#A93339"/>
<path d="M180.492 108.152H172.782V99.2634H180.492V108.152Z" fill="#A93339"/>
<path d="M191.28 99.2165V108.073H183.801V99.2165H191.28Z" fill="#A93339"/>
<path d="M194.317 99.2305H201.937V108.101H194.317V99.2305Z" fill="#A93339"/>
<path d="M57.4109 99.1977H64.7018V108.077H57.4109V99.1977Z" fill="#A93339"/>
<path d="M122.343 78.5412H114.197C114.079 78.3911 113.962 78.2458 113.844 78.0958C116.589 75.0624 119.339 72.0291 122.343 68.7098V78.5412Z" fill="#A93339"/>
<path d="M125.756 68.8645C128.699 72.0573 131.472 75.0578 134.241 78.0629C134.128 78.2177 134.01 78.3771 133.898 78.5318H125.756V68.8598V68.8645Z" fill="#A93339"/>
<path d="M58.2146 89.1601C59.2723 88.3865 59.9633 87.8849 60.9129 87.191C59.9257 86.6191 59.1595 86.1737 58.2193 85.6298C59.277 84.5 60.3723 83.3326 61.6462 81.9777C62.9107 83.1779 64.0295 84.2421 65.2517 85.4001C64.0953 85.9908 63.2539 86.4175 62.2056 86.9519C63.0893 87.7021 63.7803 88.2834 64.7581 89.1132C63.6816 90.1306 62.6239 91.884 61.6509 91.8371C60.5039 91.7856 59.4274 90.1775 58.2193 89.1601H58.2146Z" fill="#A93339"/>
<path d="M186.255 87.0738C185.226 86.5628 184.403 86.1502 183.28 85.5876C184.267 84.5984 185.174 83.567 186.222 82.7137C186.495 82.4934 187.365 82.6528 187.703 82.9388C188.582 83.6889 189.32 84.6078 190.124 85.4704C189.221 85.9955 188.385 86.4784 187.383 87.0598C188.309 87.824 189.047 88.4381 189.781 89.0476C187.101 92.456 186.73 93.1217 183.867 88.9304C184.572 88.3819 185.287 87.824 186.255 87.0691V87.0738Z" fill="#A93339"/>
<path d="M117.877 107.594H121.483V112.723H117.877V107.594Z" fill="#A93339"/>
<path d="M126.357 112.714V107.66H129.972V112.714H126.357Z" fill="#A93339"/>
<path d="M123.828 51.2788C114.281 61.021 105.016 70.4773 95.7459 79.9336C93.4049 82.3199 90.9417 84.5937 88.7417 87.102C86.9695 89.1226 85.0187 89.9853 82.0901 88.9679C95.9057 74.8468 109.67 60.7726 123.697 46.4358C137.78 60.646 151.779 74.7671 166.079 89.1976C163.437 89.432 161.604 89.7133 159.691 87.7489C148.235 75.9907 136.591 64.4107 125.018 52.765C124.646 52.3899 124.35 51.9445 123.824 51.2788H123.828Z" fill="white"/>
<path d="M75.9132 71.7713C78.0474 74.167 79.9747 76.333 82.0102 78.6209C81.6811 78.9209 81.1499 79.4085 80.4354 80.0649C74.2162 73.731 68.1052 67.5096 61.8672 61.1617C59.6485 63.5152 57.6647 65.6343 55.6622 67.7347C48.2067 75.5313 40.676 83.2576 33.3428 91.1714C31.8056 92.831 30.5129 92.034 28.5574 91.8512C39.5478 80.2336 50.2845 68.888 60.786 57.7908C68.218 61.2508 75.4196 64.5982 82.6212 67.9503C82.593 68.0347 82.5601 68.1191 82.5319 68.2035C77.7136 66.4782 72.8953 64.7482 68.1522 63.0511C72.2325 69.6709 79.561 71.4619 85.9635 74.7249C82.6824 73.7638 79.4012 72.798 75.9132 71.776V71.7713Z" fill="white"/>
<path d="M186.612 60.7913C180.031 67.4206 173.967 73.5294 167.833 79.7039C167.344 79.3335 166.836 78.9537 166.103 78.4052C168.166 76.2298 170.15 74.1342 172.233 71.9354C169.182 72.7652 166.216 73.5763 163.249 74.3873C163.212 74.2936 163.169 74.1998 163.132 74.106C165.148 73.2293 167.198 72.4183 169.172 71.4525C171.274 70.4257 173.469 69.4834 175.312 68.0863C177.103 66.7314 178.499 64.8467 180.233 63.0229C174.776 64.9545 169.445 66.8392 164.114 68.7239C164.091 68.6583 164.067 68.5926 164.039 68.527C171.645 65.053 179.251 61.5789 187.379 57.8658C197.739 68.8083 208.438 80.1024 219.297 91.5652C217.323 92.5404 216.133 92.5357 214.723 91.0261C205.829 81.5182 196.808 72.1323 187.844 62.6854C187.444 62.2634 187.195 61.6962 186.608 60.7819L186.612 60.7913Z" fill="white"/>
<path d="M78.4845 13.1959C78.4845 13.1959 78.4609 13.2334 78.4233 13.3131C78.4562 13.2756 78.4891 13.2334 78.5221 13.1959H78.4845Z" fill="#A93339"/>
<path d="M78.5221 13.1959C78.4844 13.2334 78.4562 13.2756 78.4233 13.3131C78.4609 13.2334 78.4845 13.1959 78.4845 13.1959H78.5221Z" fill="#A93339"/>
<path d="M173.741 13.0787C173.224 12.2488 172.547 11.5315 171.833 10.8986C170.841 10.0688 169.769 9.31397 168.655 8.68106C166.869 7.69183 165.003 6.85731 163.094 6.14469C157.293 4.00684 151.337 2.77851 145.259 1.90649C142.796 1.55018 140.333 1.27357 137.832 1.07666C134.894 0.837559 131.951 0.640651 129.013 0.56095C123.415 0.443743 117.811 0.48125 112.213 0.91726C109.909 1.11417 107.564 1.31576 105.26 1.59237C102.477 1.94868 99.7368 2.34719 96.9962 2.9004C93.2215 3.65522 89.5266 4.56474 85.9117 5.83058C83.4109 6.74011 80.9477 7.77153 78.6819 9.15926C77.5678 9.83437 76.5383 10.6267 75.6217 11.5362C75.0247 12.1691 74.47 12.8443 74.0704 13.6366C73.2384 15.2212 73.1961 16.8058 73.9905 18.3905C74.3478 19.1828 74.9025 19.8579 75.4995 20.4908C76.4537 21.4426 77.5255 22.2349 78.6396 22.9475C80.2285 23.9367 81.9349 24.729 83.6836 25.4417C87.7733 27.106 92.0651 28.2171 96.4368 29.0845C101.678 30.1534 107.004 30.7863 112.326 31.1848C116.218 31.5036 120.11 31.6208 124.402 31.6208L124.439 31.5036C126.428 31.5411 128.769 31.4239 131.152 31.3442C134.17 31.2645 137.23 31.0254 140.248 30.7113C143.308 30.3925 146.364 29.9987 149.387 29.4455C153.039 28.7703 156.616 27.978 160.151 26.8716C163.052 25.9621 165.872 24.8884 168.495 23.4257C169.689 22.7506 170.879 21.9583 171.913 21.0487C172.59 20.4533 173.224 19.7407 173.741 18.9484C174.935 17.0074 174.935 15.0243 173.741 13.0834V13.0787ZM78.4234 13.3131C78.461 13.2334 78.4845 13.1959 78.4845 13.1959H78.5221C78.4845 13.2334 78.4563 13.2756 78.4234 13.3131ZM165.595 16.9981C165.195 17.631 164.641 18.1467 164.044 18.5827C163.249 19.1781 162.417 19.6141 161.543 20.0501C159.874 20.8425 158.125 21.4379 156.339 21.9536C153.359 22.8256 150.341 23.421 147.323 23.9367C144.465 24.4102 141.602 24.729 138.744 25.0057C136.558 25.2026 134.335 25.3245 132.149 25.4417C129.324 25.6339 126.461 25.6386 123.25 25.6386C120.392 25.7183 117.134 25.6011 113.914 25.3995C110.657 25.2401 107.399 24.926 104.141 24.5275C100.686 24.0914 97.2689 23.5382 93.8937 22.7459C91.5104 22.1927 89.207 21.5176 86.9412 20.608C86.0669 20.2517 85.2724 19.8954 84.478 19.4172C83.9609 19.0984 83.4438 18.7421 82.969 18.3858C82.5319 18.0295 82.137 17.631 81.8173 17.195C81.0229 16.0839 81.0229 14.9352 81.8173 13.7866C82.137 13.2709 82.6118 12.8771 83.0866 12.4786C83.9186 11.8456 84.7929 11.3299 85.7472 10.8939C87.8908 9.9047 90.1189 9.19208 92.4223 8.59667C95.4403 7.84185 98.5005 7.25113 101.561 6.81512C105.415 6.21971 109.308 5.8634 113.237 5.6243C117.727 5.34769 122.254 5.26799 126.743 5.34769C130.555 5.42739 134.368 5.58679 138.185 5.9431C141.997 6.2619 145.772 6.73542 149.546 7.44804C153.161 8.12315 156.734 8.95298 160.194 10.3407C161.148 10.7392 162.102 11.1705 162.977 11.6862C163.574 12.0426 164.128 12.3989 164.645 12.8771C165.003 13.2334 165.322 13.5897 165.6 13.9882C166.197 14.9774 166.234 16.0088 165.6 16.9981H165.595Z" fill="#A93339"/>
</g>
<defs>
<clipPath id="clip0_3133_14">
<rect width="248" height="131" fill="white" transform="translate(0 0.5)"/>
</clipPath>
</defs>
</svg>
