<svg width="16" height="16" viewBox="0 0 16 16" fill="none" xmlns="http://www.w3.org/2000/svg">
<rect width="16" height="16" fill="black"/>
<path d="M7.72562 2C7.72562 3.44 8.89175 4.606 10.3316 4.606H11.3941V5.63438C11.3941 7.07438 12.5601 8.24037 14.0001 8.24037V2.49725C14.0001 2.36541 13.9477 2.23899 13.8545 2.14576C13.7612 2.05252 13.6348 2.0001 13.503 2H7.72562ZM4.86287 4.87988C4.86287 6.31975 6.0285 7.48588 7.46837 7.48588H8.53137V8.51425C8.53137 9.95425 9.69737 11.1202 11.1374 11.1202V5.37712C11.1372 5.24534 11.0847 5.11901 10.9915 5.02582C10.8984 4.93264 10.772 4.8802 10.6402 4.88L4.86287 4.87988ZM2.00012 7.75975C2.00012 9.19975 3.16562 10.3658 4.60562 10.3658H5.66862V11.3941C5.66862 12.8346 6.83475 14.0001 8.27462 14.0001V8.2575C8.27449 8.12566 8.22208 7.99925 8.12889 7.90599C8.0357 7.81273 7.90934 7.76023 7.7775 7.76H2.00012V7.75975Z" fill="white"/>
</svg>
