<svg width="16" height="16" viewBox="0 0 16 16" fill="none" xmlns="http://www.w3.org/2000/svg">
<rect width="16" height="16" fill="black"/>
<path d="M11.453 6.3465C10.612 2.638 8.62501 1.422 8.41151 0.956003C8.17701 0.625503 7.92451 0.00050354 7.92451 0.00050354C7.92201 0.0135035 7.92201 0.0215035 7.91951 0.0345035V0.0425035C7.91951 0.0530035 7.91701 0.0580035 7.91701 0.0685035V0.0790035H7.91451V0.112504H7.91201C7.91201 0.117504 7.91201 0.125504 7.90951 0.128004V0.143504C7.90984 0.14917 7.90901 0.153504 7.90701 0.156504V0.169504C7.90734 0.177837 7.90651 0.184837 7.90451 0.190504V0.193004C7.90415 0.204491 7.90247 0.215899 7.89951 0.227004V0.232004C7.89751 0.234337 7.89667 0.237004 7.89701 0.240004V0.250504H7.89451V0.266004H7.89201V0.276504H7.88701V0.292004H7.88451V0.305004H7.88201V0.315504H7.87951V0.326004H7.87701V0.336504H7.87451V0.347004H7.87201V0.355004H7.86951V0.365504H7.86701V0.376004H7.86451C7.86201 0.376004 7.86201 0.378504 7.86201 0.378504V0.383504L7.85951 0.388504C7.85917 0.393837 7.85751 0.399004 7.85451 0.404004C7.85201 0.406504 7.85201 0.406504 7.85201 0.409004V0.414004H7.84951V0.419004H7.84451V0.432004H7.83951V0.440004H7.83701V0.442504H7.83451V0.447504H7.83201V0.455504H7.82951V0.460504H7.82451V0.468504H7.82201V0.473504H7.81951V0.478504H7.81701V0.486504H7.81451V0.491504H7.81201V0.494004H7.80951V0.499004H7.80451V0.507004H7.80201V0.509504H7.79951V0.514504H7.79701V0.522503H7.79451V0.525003H7.79201V0.530003H7.78951V0.532504H7.78701V0.540504H7.78201V0.543003H7.77951V0.548003H7.77701V0.550503H7.77451V0.555503H7.77201V0.560504C7.76951 0.560504 7.76951 0.563004 7.76951 0.563004V0.565504H7.76701L7.75901 0.578503C7.75901 0.578503 7.75401 0.583504 7.75401 0.586504C7.75151 0.586504 7.75151 0.589004 7.75151 0.589004V0.591504H7.74901V0.594003H7.74651V0.599003H7.74151V0.601503H7.73901V0.604003H7.73651V0.611504H7.73401V0.614004H7.73151V0.616504H7.72901V0.621504H7.72651V0.616504H7.72151V0.619004H7.71901V0.624004H7.71651V0.629004H7.71401V0.631504H7.71151V0.634004H7.70901V0.636504H7.70651V0.641504H7.70151V0.644004H7.69901V0.649004H7.69651V0.651504H7.69401V0.654004H7.69151V0.662004H7.68901V0.664504H7.68651V0.667004H7.68401V0.669504H7.68151V0.672004H7.67651V0.677004H7.67401V0.679504H7.67151V0.682003H7.66901V0.687003H7.66651V0.689503H7.66151V0.692003H7.65901V0.694504H7.65651V0.699504H7.65401V0.704504H7.65151V0.707004H7.64901V0.709504H7.64401V0.712004H7.64151V0.714504H7.63901V0.719504H7.63651V0.722004H7.63401V0.727004H7.63151V0.729504H7.62901V0.732004H7.62651V0.734504H7.62401V0.737004H7.61901V0.739504C7.61651 0.739504 7.61651 0.742004 7.61651 0.742004L7.61401 0.744503L7.61151 0.747003V0.752003H7.60901V0.754503H7.60651V0.757004H7.60401V0.759504H7.60151L7.59651 0.764504V0.767004C7.59151 0.769504 7.59151 0.772003 7.58601 0.777503C7.58601 0.777503 7.58101 0.782504 7.57801 0.782504C7.57001 0.787504 7.56001 0.798004 7.55201 0.806004C7.54701 0.808504 7.54151 0.814004 7.53651 0.816504C7.52617 0.826504 7.51567 0.83517 7.50501 0.842503C7.48951 0.858003 7.47351 0.868504 7.45551 0.884004H7.45301L7.33051 0.991004H7.32801C7.21601 1.09 7.08301 1.2175 6.93201 1.3685L6.91901 1.3815C6.01251 2.319 4.58301 4.2745 4.43451 7.4335C4.41901 7.694 4.42151 7.949 4.43701 8.1965V8.2015C4.51001 9.4465 4.90051 10.509 5.39001 11.3735C5.58251 11.7175 5.79351 12.03 6.00701 12.311C6.74151 13.28 7.49151 13.8555 7.68151 13.996C7.97601 14.6755 7.94951 15.8475 7.94951 15.8475L8.37901 15.9905C8.37901 15.9905 8.29051 14.8575 8.41301 14.308C8.45201 14.1385 8.54051 13.993 8.64501 13.868C8.71801 13.8185 8.92651 13.6675 9.17651 13.4385C9.18951 13.4255 9.19751 13.415 9.20801 13.402C10.221 12.4565 12.1145 10.1285 11.466 6.337L11.453 6.3465Z" fill="white"/>
</svg>
