<svg width="16" height="16" viewBox="0 0 16 16" fill="none" xmlns="http://www.w3.org/2000/svg">
<g clip-path="url(#clip0_1_4)">
<mask id="mask0_1_4" style="mask-type:luminance" maskUnits="userSpaceOnUse" x="0" y="0" width="16" height="16">
<path d="M8 16C12.4183 16 16 12.4183 16 8C16 3.58172 12.4183 0 8 0C3.58172 0 0 3.58172 0 8C0 12.4183 3.58172 16 8 16Z" fill="white"/>
</mask>
<g mask="url(#mask0_1_4)">
<path d="M8 16C12.4183 16 16 12.4183 16 8C16 3.58172 12.4183 0 8 0C3.58172 0 0 3.58172 0 8C0 12.4183 3.58172 16 8 16Z" fill="black"/>
<path d="M13.2896 14.0018L6.14594 4.8H4.8V11.1973H5.87675V6.1675L12.4444 14.6529C12.7403 14.4549 13.0227 14.2374 13.2896 14.0018Z" fill="url(#paint0_linear_1_4)"/>
<path d="M10.2222 4.8H11.2889V11.2H10.2222V4.8Z" fill="url(#paint1_linear_1_4)"/>
</g>
</g>
<defs>
<linearGradient id="paint0_linear_1_4" x1="477.103" y1="560.354" x2="760.606" y2="911.744" gradientUnits="userSpaceOnUse">
<stop stop-color="white"/>
<stop offset="1" stop-color="white" stop-opacity="0"/>
</linearGradient>
<linearGradient id="paint1_linear_1_4" x1="63.5566" y1="4.8" x2="61.7519" y2="474.796" gradientUnits="userSpaceOnUse">
<stop stop-color="white"/>
<stop offset="1" stop-color="white" stop-opacity="0"/>
</linearGradient>
<clipPath id="clip0_1_4">
<rect width="16" height="16" fill="white"/>
</clipPath>
</defs>
</svg>
