<svg width="15" height="15" viewBox="0 0 15 15" fill="none" xmlns="http://www.w3.org/2000/svg">
<path fill-rule="evenodd" clip-rule="evenodd" d="M14 4.213L7.5 0.419998L1 4.213V10.787L2.006 11.374L4.063 10.542C4.33981 10.4299 4.57686 10.2377 4.74379 9.9901C4.91072 9.74247 4.99993 9.45064 5 9.152V4H6V9.152C5.99993 9.64983 5.85122 10.1363 5.57294 10.5491C5.29466 10.9619 4.89947 11.2822 4.438 11.469L3.098 12.011L7.5 14.58L14 10.788V4.213ZM7 6C7 5.46957 7.21071 4.96086 7.58579 4.58578C7.96086 4.21071 8.46957 4 9 4H10.167C11.179 4 12 4.82 12 5.833V6H11V5.833C11 5.72361 10.9785 5.61529 10.9366 5.51422C10.8947 5.41316 10.8334 5.32133 10.756 5.24398C10.6787 5.16663 10.5868 5.10527 10.4858 5.06341C10.3847 5.02154 10.2764 5 10.167 5H9C8.73478 5 8.48043 5.10536 8.29289 5.29289C8.10536 5.48043 8 5.73478 8 6C8 6.26521 8.10536 6.51957 8.29289 6.7071C8.48043 6.89464 8.73478 7 9 7H10C10.5304 7 11.0391 7.21071 11.4142 7.58578C11.7893 7.96086 12 8.46957 12 9C12 9.53043 11.7893 10.0391 11.4142 10.4142C11.0391 10.7893 10.5304 11 10 11H9C8.46957 11 7.96086 10.7893 7.58579 10.4142C7.21071 10.0391 7 9.53043 7 9H8C8 9.26521 8.10536 9.51957 8.29289 9.7071C8.48043 9.89464 8.73478 10 9 10H10C10.2652 10 10.5196 9.89464 10.7071 9.7071C10.8946 9.51957 11 9.26521 11 9C11 8.73478 10.8946 8.48043 10.7071 8.29289C10.5196 8.10536 10.2652 8 10 8H9C8.46957 8 7.96086 7.78928 7.58579 7.41421C7.21071 7.03914 7 6.53043 7 6Z" fill="black"/>
</svg>
