<svg width="16" height="16" viewBox="0 0 16 16" fill="none" xmlns="http://www.w3.org/2000/svg">
<path d="M8 0C3.514 0 0 3.51385 0 8C0 12.4862 3.514 16 8 16C12.486 16 16 12.4862 16 8C16 3.51385 12.486 0 8 0ZM7.16933 2.46154H8.04267L7.76533 4.92308H8.54533C9.04 4.92308 9.372 5.05108 9.56133 5.36985C9.746 5.68492 9.802 6.20185 9.728 6.90585L9.38133 9.84615H8.49333L8.81267 7.12739C8.85089 6.75241 8.836 6.496 8.768 6.35815C8.70067 6.22154 8.552 6.15385 8.32933 6.15385H7.63L7.208 9.84615H6.33333L7.16933 2.46154ZM3.33333 4.92308H5.11067C5.958 4.92308 6.47133 5.97169 6.27067 7.536C6.03733 9.35385 5.41333 9.84615 4.264 9.84615H3.71467L3.54067 11.6923H2.65733L3.33333 4.92308ZM10.3333 4.92308H12.1107C12.958 4.92308 13.4713 5.97169 13.2707 7.536C13.0373 9.35385 12.4127 9.84615 11.264 9.84615H10.7147L10.5407 11.6923H9.65733L10.3333 4.92308ZM4.09 6.15385L3.83867 8.61539H4.40867C4.902 8.61539 5.36067 8.512 5.43733 7.15446C5.466 6.62769 5.34733 6.15385 4.77733 6.15385H4.09ZM11.09 6.15385L10.8387 8.61539H11.4087C11.902 8.61539 12.3607 8.512 12.4373 7.15446C12.466 6.62769 12.348 6.15385 11.7773 6.15385H11.09Z" fill="black"/>
</svg>
