<svg width="16" height="16" viewBox="0 0 16 16" fill="none" xmlns="http://www.w3.org/2000/svg">
<rect width="16" height="16" fill="black"/>
<path d="M14.2083 9.61351C14.2004 9.58841 14.1894 9.56449 14.1755 9.5424C14.0949 9.38635 13.9017 9.34072 13.5959 9.40551C12.6441 9.60699 12.2758 9.48255 12.1423 9.39365C12.9146 8.18 13.5493 6.7139 13.8923 5.34617C14.0489 4.72393 14.3516 3.25842 13.9625 2.54315C13.9378 2.49403 13.9089 2.44723 13.8762 2.40329C13.1338 1.42787 12.0444 0.903413 10.7266 0.88919C9.86624 0.879708 9.1325 1.09423 8.93339 1.17305C8.83483 1.15419 8.73582 1.13799 8.63644 1.12445C8.3872 1.07802 8.13466 1.05285 7.8814 1.04919C7.20118 1.03793 6.61362 1.20564 6.12618 1.54698C5.63357 1.35675 3.37135 0.572147 1.9712 1.5938C1.18797 2.16447 0.827715 3.18375 0.897349 4.62437C0.920943 5.10913 1.18912 6.60012 1.61267 8.02829C1.8774 8.92115 2.15228 9.62872 2.43734 10.151C2.75577 10.7408 3.08457 11.0944 3.42372 11.2118C3.68153 11.2995 4.07574 11.2965 4.49296 10.7798C4.85489 10.334 5.22812 9.89807 5.61228 9.47247C5.86261 9.61173 6.13366 9.68699 6.4122 9.69588V9.69825C6.36378 9.75763 6.31639 9.81788 6.27005 9.879C6.07497 10.1338 6.03411 10.1872 5.40683 10.3205C5.22843 10.3584 4.75423 10.4586 4.74733 10.8011C4.74631 10.8695 4.76449 10.9368 4.7997 10.9949C4.93033 11.2455 5.33029 11.3564 5.38381 11.37C6.15208 11.5673 6.82539 11.4245 7.32434 10.9676C7.31455 12.2897 7.36865 13.5857 7.52288 13.9828C7.65006 14.3105 7.9614 15.1111 8.94432 15.1111C9.08819 15.1115 9.24722 15.0929 9.4214 15.0554C10.4469 14.829 10.8923 14.362 11.0644 13.3333C11.1507 12.8177 11.2957 11.6296 11.3746 10.903C11.3844 10.8615 11.3953 10.8319 11.4074 10.8224C11.4074 10.8224 11.4477 10.794 11.6531 10.8402L11.6784 10.8443L11.8246 10.8574L11.8332 10.858C12.3207 10.8811 12.933 10.7738 13.2898 10.6032C13.6604 10.4254 14.3297 9.991 14.2083 9.61351ZM2.01378 7.92637C1.58563 6.48338 1.33587 5.03149 1.3163 4.62497C1.25357 3.33783 1.55628 2.44241 2.2152 1.9624C3.27237 1.1926 5.00054 1.64239 5.73025 1.88536L5.7245 1.89128C4.5603 3.10138 4.58792 5.17076 4.59195 5.29757C4.59195 5.34617 4.5954 5.4155 4.60115 5.51091C4.62072 5.85818 4.6587 6.50649 4.55857 7.24013C4.46649 7.92163 4.67021 8.5889 5.11851 9.07069C5.16455 9.12046 5.21289 9.16728 5.26353 9.21113C5.06384 9.43099 4.6305 9.91811 4.16839 10.49C3.84152 10.8941 3.61593 10.8165 3.54227 10.791C3.31668 10.714 3.0744 10.4432 2.82924 10.0076C2.55301 9.5104 2.27505 8.80342 2.01494 7.92637M5.47186 10.9415C5.38442 10.9191 5.30066 10.8836 5.22325 10.8361C5.27447 10.8129 5.35964 10.7827 5.50121 10.7531C6.24013 10.596 6.35407 10.4858 6.60326 10.1605C6.67058 10.0704 6.74103 9.98283 6.81446 9.89796C6.83323 9.87527 6.84768 9.84913 6.85705 9.82092C6.95488 9.73144 7.01358 9.75574 7.10796 9.79603C7.19773 9.83455 7.28521 9.95011 7.32088 10.0775C7.33815 10.138 7.35656 10.2523 7.29499 10.3412C6.77475 11.0915 6.01627 11.082 5.47186 10.9415ZM6.67692 8.57823L6.64699 8.6612C6.57046 8.87276 6.4991 9.0695 6.45478 9.25617C6.07094 9.25499 5.69687 9.0855 5.41316 8.78031C5.05176 8.39215 4.88774 7.85229 4.96256 7.2988C5.06787 6.52367 5.02931 5.8487 5.0086 5.48602L5.00111 5.35565C5.17146 5.20039 5.95987 4.76541 6.52212 4.89816C6.77878 4.9586 6.93531 5.13876 6.99977 5.44809C7.33642 7.0505 7.04465 7.71777 6.80986 8.25467C6.7623 8.361 6.71816 8.46891 6.6775 8.57823M10.9153 11.2876C10.9061 11.3927 10.8942 11.5104 10.8797 11.6408L10.7956 11.9004C10.7894 11.9211 10.7859 11.9427 10.7853 11.9644C10.7818 12.2459 10.7542 12.349 10.7191 12.4799C10.662 12.6841 10.6272 12.8942 10.6155 13.1063C10.5522 13.9443 10.1102 14.4261 9.22458 14.621C8.35272 14.8136 8.19792 14.3271 8.06211 13.8974C8.04789 13.8523 8.03293 13.8075 8.01722 13.7629C7.89349 13.4157 7.90788 12.9262 7.92687 12.2488C7.93608 11.9164 7.91248 11.1223 7.73696 10.6808C7.73926 10.507 7.74291 10.3308 7.74789 10.1522C7.74795 10.1295 7.74485 10.107 7.73869 10.0852C7.73237 10.0437 7.72392 10.0026 7.71336 9.96196C7.64316 9.70833 7.47166 9.49618 7.26449 9.40788C7.18277 9.37291 7.03257 9.30891 6.85187 9.35632C6.89042 9.19276 6.95718 9.00846 7.02969 8.80816L7.06019 8.72401C7.09472 8.6292 7.13731 8.53142 7.18277 8.42771C7.42792 7.86592 7.76401 7.09672 7.39915 5.3592C7.26276 4.70852 6.8064 4.39089 6.11467 4.46437C5.70033 4.50882 5.32051 4.68127 5.13117 4.77964C5.09321 4.79946 5.05561 4.82001 5.01838 4.84127C5.07132 4.18585 5.27102 2.96034 6.01742 2.18522C6.07279 2.12766 6.13099 2.07307 6.19179 2.02166C6.22205 2.01575 6.2506 2.00278 6.27523 1.98373C6.708 1.64595 7.25068 1.48002 7.88774 1.49009C8.12407 1.49404 8.34927 1.51004 8.56335 1.53809C9.67979 1.74847 10.4302 2.39559 10.886 2.95027C11.3544 3.52035 11.6082 4.09459 11.7095 4.40452C10.9482 4.32511 10.4302 4.47978 10.1672 4.86675C9.59634 5.70706 10.4803 7.3391 10.905 8.1237C10.9827 8.26711 11.05 8.39156 11.0713 8.44371C11.2094 8.7892 11.3884 9.01972 11.519 9.18802C11.5593 9.23958 11.5984 9.28936 11.6278 9.33321C11.3976 9.40195 10.9833 9.56018 11.0207 10.3507C11.0064 10.5119 10.9903 10.6729 10.9723 10.8337C10.9458 10.9569 10.9326 11.1063 10.9153 11.2876ZM11.427 10.327C11.4039 9.83396 11.5823 9.7824 11.7705 9.72848L11.8482 9.70418C11.8722 9.72673 11.898 9.74715 11.9253 9.76522C12.2533 9.98804 12.8363 10.0147 13.6558 9.84463C13.5395 9.94952 13.3571 10.0817 13.1074 10.2008C12.8714 10.3134 12.4766 10.3981 12.102 10.4165C11.6876 10.4366 11.477 10.3691 11.427 10.327ZM11.755 4.83297C11.7487 5.03194 11.7285 5.23019 11.6946 5.42617C11.6629 5.63832 11.6301 5.85758 11.6215 6.12366C11.6134 6.38204 11.6445 6.65108 11.675 6.91183C11.7366 7.43747 11.7993 7.97852 11.5559 8.51245C11.5159 8.43845 11.4797 8.36229 11.4477 8.2843C11.3905 8.15968 11.3281 8.03768 11.2606 7.91866C10.9061 7.26443 10.0769 5.73195 10.501 5.10735C10.7197 4.78556 11.2733 4.77193 11.755 4.83297ZM11.8862 8.98891L11.8373 8.9255L11.8171 8.89942C12.2349 8.1883 12.1532 7.48488 12.0801 6.86146C12.0502 6.60545 12.0226 6.36367 12.0295 6.13729C12.037 5.8961 12.0675 5.68988 12.0974 5.49017C12.1342 5.24424 12.1722 4.99001 12.1613 4.69015C12.1694 4.65324 12.1717 4.61523 12.1682 4.57756C12.1417 4.28955 11.8229 3.42909 11.1726 2.64982C10.7488 2.13544 10.2208 1.72282 9.62569 1.4409C10.0087 1.3605 10.3991 1.32353 10.7899 1.33068C11.9708 1.35794 12.9048 1.81306 13.566 2.6836C13.58 2.70253 13.5929 2.72232 13.6046 2.74286C14.0207 3.54643 13.4463 6.46145 11.8862 8.98891ZM6.81216 5.36454C6.79777 5.47121 6.63376 5.61521 6.45478 5.61521L6.40817 5.61165C6.29138 5.59038 6.18707 5.52351 6.11698 5.42498C6.0905 5.38943 6.04792 5.3195 6.05597 5.25609C6.05853 5.23838 6.0646 5.2214 6.07381 5.2062C6.08301 5.19101 6.09516 5.17794 6.10949 5.16779C6.1774 5.11505 6.31206 5.0955 6.46054 5.11683C6.64239 5.1429 6.83 5.2312 6.81158 5.36454M11.3752 5.12098C11.3815 5.16839 11.347 5.2395 11.2871 5.30468C11.2252 5.37426 11.1426 5.42074 11.0523 5.43684L11.0092 5.4398C10.8405 5.4398 10.6978 5.30113 10.6869 5.21994C10.6731 5.11505 10.8388 5.03623 11.0092 5.01135C11.1806 4.98646 11.3613 5.01668 11.3752 5.12098Z" fill="white"/>
</svg>
