<svg width="16" height="16" viewBox="0 0 16 16" fill="none" xmlns="http://www.w3.org/2000/svg">
<rect width="16" height="16" fill="black"/>
<path d="M4.00001 10C4.00001 10.3536 3.85953 10.6928 3.60949 10.9428C3.35944 11.1929 3.0203 11.3333 2.66668 11.3333C2.31305 11.3333 1.97392 11.1929 1.72387 10.9428C1.47382 10.6928 1.33334 10.3536 1.33334 10C1.33334 9.64638 1.47382 9.30724 1.72387 9.05719C1.97392 8.80714 2.31305 8.66667 2.66668 8.66667H4.00001V10ZM4.66668 10C4.66668 9.64638 4.80715 9.30724 5.0572 9.05719C5.30725 8.80714 5.64639 8.66667 6.00001 8.66667C6.35363 8.66667 6.69277 8.80714 6.94282 9.05719C7.19287 9.30724 7.33334 9.64638 7.33334 10V13.3333C7.33334 13.687 7.19287 14.0261 6.94282 14.2761C6.69277 14.5262 6.35363 14.6667 6.00001 14.6667C5.64639 14.6667 5.30725 14.5262 5.0572 14.2761C4.80715 14.0261 4.66668 13.687 4.66668 13.3333V10ZM6.00001 4.66667C5.64639 4.66667 5.30725 4.52619 5.0572 4.27614C4.80715 4.02609 4.66668 3.68696 4.66668 3.33333C4.66668 2.97971 4.80715 2.64057 5.0572 2.39052C5.30725 2.14048 5.64639 2 6.00001 2C6.35363 2 6.69277 2.14048 6.94282 2.39052C7.19287 2.64057 7.33334 2.97971 7.33334 3.33333V4.66667H6.00001ZM6.00001 5.33333C6.35363 5.33333 6.69277 5.47381 6.94282 5.72386C7.19287 5.97391 7.33334 6.31304 7.33334 6.66667C7.33334 7.02029 7.19287 7.35943 6.94282 7.60948C6.69277 7.85952 6.35363 8 6.00001 8H2.66668C2.31305 8 1.97392 7.85952 1.72387 7.60948C1.47382 7.35943 1.33334 7.02029 1.33334 6.66667C1.33334 6.31304 1.47382 5.97391 1.72387 5.72386C1.97392 5.47381 2.31305 5.33333 2.66668 5.33333H6.00001ZM11.3333 6.66667C11.3333 6.31304 11.4738 5.97391 11.7239 5.72386C11.9739 5.47381 12.3131 5.33333 12.6667 5.33333C13.0203 5.33333 13.3594 5.47381 13.6095 5.72386C13.8595 5.97391 14 6.31304 14 6.66667C14 7.02029 13.8595 7.35943 13.6095 7.60948C13.3594 7.85952 13.0203 8 12.6667 8H11.3333V6.66667ZM10.6667 6.66667C10.6667 7.02029 10.5262 7.35943 10.2762 7.60948C10.0261 7.85952 9.68697 8 9.33334 8C8.97972 8 8.64058 7.85952 8.39053 7.60948C8.14049 7.35943 8.00001 7.02029 8.00001 6.66667V3.33333C8.00001 2.97971 8.14049 2.64057 8.39053 2.39052C8.64058 2.14048 8.97972 2 9.33334 2C9.68697 2 10.0261 2.14048 10.2762 2.39052C10.5262 2.64057 10.6667 2.97971 10.6667 3.33333V6.66667ZM9.33334 12C9.68697 12 10.0261 12.1405 10.2762 12.3905C10.5262 12.6406 10.6667 12.9797 10.6667 13.3333C10.6667 13.687 10.5262 14.0261 10.2762 14.2761C10.0261 14.5262 9.68697 14.6667 9.33334 14.6667C8.97972 14.6667 8.64058 14.5262 8.39053 14.2761C8.14049 14.0261 8.00001 13.687 8.00001 13.3333V12H9.33334ZM9.33334 11.3333C8.97972 11.3333 8.64058 11.1929 8.39053 10.9428C8.14049 10.6928 8.00001 10.3536 8.00001 10C8.00001 9.64638 8.14049 9.30724 8.39053 9.05719C8.64058 8.80714 8.97972 8.66667 9.33334 8.66667H12.6667C13.0203 8.66667 13.3594 8.80714 13.6095 9.05719C13.8595 9.30724 14 9.64638 14 10C14 10.3536 13.8595 10.6928 13.6095 10.9428C13.3594 11.1929 13.0203 11.3333 12.6667 11.3333H9.33334Z" fill="white"/>
</svg>
